# xmcd CD database file
#
# Track frame offsets:
#	150
#	14245
#	28937
#	42251
#	55566
#	69880
#	83872
#	98083
#	112082
#	127057
#	142565
#	156771
#	171651
#	183218
#	198009
#	212456
#
# Disc length: 3019 seconds
#
# Revision: 0
# Processed by: cddbd v1.5.1PL0 Copyright (c) Steve Scherf et al.
# Submitted via: CDex 1.51
#
DISCID=d60bc910
DTITLE=Doris Day - Great Divas
DYEAR=1900
DGENRE=Blues
TTITLE0=Theres Good Blues Tonight
TTITLE1=The Whole World Is Singing My Song
TTITLE2=My Bumber One Dream Come True
TTITLE3=Till The End Of Time
TTITLE4=Sentimental Journey
TTITLE5=Aren't You Glad You're You
TTITLE6=Day By Day
TTITLE7=Come Ton Baby, Do!
TTITLE8=It Could Happen To You
TTITLE9=The Last Time I Saw You
TTITLE10=A Red Kiss On A Blue Letter
TTITLE11=We'll Be Together Again
TTITLE12=I Got The Sun In The Morning
TTITLE13=All Through The Day
TTITLE14=Sooner Or Later
TTITLE15=In The Moon Mist
EXTD=
EXTT0=
EXTT1=
EXTT2=
EXTT3=
EXTT4=
EXTT5=
EXTT6=
EXTT7=
EXTT8=
EXTT9=
EXTT10=
EXTT11=
EXTT12=
EXTT13=
EXTT14=
EXTT15=
PLAYORDER=
